<svg width="237" height="99" viewBox="0 0 237 99" fill="none" xmlns="http://www.w3.org/2000/svg">
<path d="M177.36 41.3772C177.36 35.647 178.426 30.6165 180.558 26.2855C182.757 21.9546 185.722 18.6231 189.453 16.291C193.184 13.959 197.349 12.793 201.946 12.793C205.877 12.793 209.309 13.5925 212.241 15.1916C215.239 16.7908 217.538 18.8896 219.137 21.4882V13.5925H236.227V69.3618H219.137V61.4661C217.471 64.0647 215.139 66.1636 212.141 67.7627C209.209 69.3618 205.778 70.1613 201.846 70.1613C197.316 70.1613 193.184 68.9953 189.453 66.6633C185.722 64.2646 182.757 60.8998 180.558 56.5688C178.426 52.1713 177.36 47.1074 177.36 41.3772ZM219.137 41.4772C219.137 37.2128 217.937 33.848 215.539 31.3827C213.207 28.9174 210.342 27.6848 206.944 27.6848C203.545 27.6848 200.647 28.9174 198.248 31.3827C195.916 33.7814 194.75 37.1129 194.75 41.3772C194.75 45.6415 195.916 49.0397 198.248 51.5716C200.647 54.0369 203.545 55.2696 206.944 55.2696C210.342 55.2696 213.207 54.0369 215.539 51.5716C217.937 49.1063 219.137 45.7415 219.137 41.4772Z" fill="#4CE2FF"/>
<path d="M176.827 54.8697V69.3618H168.131C161.935 69.3618 157.104 67.8626 153.639 64.8642C150.175 61.7993 148.442 56.8353 148.442 49.9724V27.7847H141.646V13.5925H148.442V0H165.533V13.5925H176.727V27.7847H165.533V50.1723C165.533 51.8381 165.933 53.0374 166.732 53.7704C167.532 54.5033 168.864 54.8697 170.73 54.8697H176.827Z" fill="#4CE2FF"/>
<path d="M140.222 54.8697V69.3618H131.527C125.33 69.3618 120.499 67.8626 117.035 64.8642C113.57 61.7993 111.838 56.8353 111.838 49.9724V27.7847H105.041V13.5925H111.838V0H128.928V13.5925H140.122V27.7847H128.928V50.1723C128.928 51.8381 129.328 53.0374 130.127 53.7704C130.927 54.5033 132.26 54.8697 134.125 54.8697H140.222Z" fill="#4CE2FF"/>
<path d="M104.916 40.5777C104.916 42.1768 104.816 43.8425 104.616 45.5749H65.9377C66.2042 49.0397 67.3036 51.7049 69.2358 53.5705C71.2347 55.3695 73.6667 56.269 76.5318 56.269C80.7961 56.269 83.7612 54.47 85.4269 50.872H103.617C102.684 54.5366 100.985 57.8348 98.5197 60.7665C96.121 63.6982 93.0894 65.997 89.4247 67.6627C85.7601 69.3285 81.6623 70.1613 77.1315 70.1613C71.6678 70.1613 66.8038 68.9953 62.5395 66.6633C58.2752 64.3312 54.9437 60.9997 52.545 56.6688C50.1464 52.3378 48.947 47.274 48.947 41.4772C48.947 35.6804 50.113 30.6165 52.4451 26.2855C54.8438 21.9546 58.1753 18.6231 62.4396 16.291C66.7039 13.959 71.6012 12.793 77.1315 12.793C82.5285 12.793 87.3259 13.9257 91.5235 16.1911C95.7212 18.4565 98.9861 21.6881 101.318 25.8858C103.717 30.0834 104.916 34.9807 104.916 40.5777ZM87.4258 36.0801C87.4258 33.1484 86.4264 30.8164 84.4275 29.084C82.4286 27.3516 79.9299 26.4854 76.9316 26.4854C74.0665 26.4854 71.6345 27.3183 69.6356 28.984C67.7033 30.6498 66.504 33.0152 66.0376 36.0801H87.4258Z" fill="#4CE2FF"/>
<path d="M25.6858 70.1613C20.8219 70.1613 16.4909 69.3285 12.693 67.6627C8.8951 65.997 5.89675 63.7316 3.69796 60.8665C1.49917 57.9348 0.26652 54.6699 0 51.0719H16.8907C17.0906 53.0041 17.9901 54.5699 19.5892 55.7693C21.1883 56.9686 23.1539 57.5683 25.4859 57.5683C27.6181 57.5683 29.2505 57.1685 30.3832 56.3689C31.5826 55.5028 32.1823 54.4034 32.1823 53.0708C32.1823 51.4716 31.3494 50.3056 29.6836 49.5727C28.0179 48.7731 25.3194 47.9069 21.5881 46.9741C17.5903 46.0413 14.2588 45.0752 11.5936 44.0757C8.92841 43.0096 6.62968 41.3772 4.69741 39.1784C2.76514 36.913 1.79901 33.8813 1.79901 30.0834C1.79901 26.8852 2.6652 23.9868 4.39758 21.3882C6.19658 18.723 8.79515 16.6242 12.1933 15.0917C15.658 13.5592 19.7558 12.793 24.4865 12.793C31.4826 12.793 36.9796 14.5253 40.9774 17.9901C45.0418 21.4549 47.3739 26.0523 47.9735 31.7825H32.1823C31.9157 29.8502 31.0495 28.3177 29.5837 27.185C28.1845 26.0523 26.3188 25.486 23.9868 25.486C21.9879 25.486 20.4554 25.8858 19.3893 26.6853C18.3232 27.4182 17.7902 28.451 17.7902 29.7836C17.7902 31.3827 18.6231 32.5821 20.2888 33.3816C22.0212 34.1812 24.6864 34.9807 28.2844 35.7803C32.4155 36.8464 35.7803 37.9125 38.3788 38.9785C40.9774 39.978 43.2428 41.6437 45.1751 43.9758C47.174 46.2412 48.2068 49.3062 48.2734 53.1707C48.2734 56.4356 47.3406 59.3673 45.4749 61.9659C43.6759 64.4978 41.044 66.4967 37.5793 67.9626C34.1812 69.4284 30.2167 70.1613 25.6858 70.1613Z" fill="#4CE2FF"/>
<rect y="86" width="48" height="13" fill="#4CE2FF"/>
</svg>
