<?xml version="1.0" standalone="no"?>
<!DOCTYPE svg PUBLIC "-//W3C//DTD SVG 20010904//EN"
 "http://www.w3.org/TR/2001/REC-SVG-20010904/DTD/svg10.dtd">
<svg version="1.0" xmlns="http://www.w3.org/2000/svg"
 width="700.000000pt" height="700.000000pt" viewBox="0 0 700.000000 700.000000"
 preserveAspectRatio="xMidYMid meet">
<metadata>
Created by potrace 1.14, written by Peter Selinger 2001-2017
</metadata>
<g transform="translate(0.000000,700.000000) scale(0.100000,-0.100000)"
fill="#000000" stroke="none">
<path d="M690 6986 c-344 -64 -607 -325 -676 -671 -11 -59 -13 -515 -11 -2840
1 -1524 5 -2779 9 -2790 3 -11 9 -33 13 -50 58 -251 256 -477 506 -576 59 -23
56 -22 149 -43 57 -13 427 -15 2840 -13 1526 1 2787 6 2801 10 204 56 303 109
426 228 107 103 182 232 225 385 l23 79 2 2770 c2 2963 5 2823 -45 2965 -92
263 -334 481 -593 536 -13 2 -44 9 -69 14 -72 15 -5519 11 -5600 -4z"/>
</g>
</svg>
